<svg id="Layer_1" data-name="Layer 1" xmlns="http://www.w3.org/2000/svg" viewBox="0 0 118.85 119.31"><defs><style>.cls-1{fill:#ff96c8;}.cls-2{fill:#fff998;}.cls-3{fill:#46a2e0;}</style></defs><polygon class="cls-1" points="112.52 32.84 112.52 34.21 111.16 34.21 111.16 35.57 113.89 35.57 113.89 32.84 112.52 32.84"/><polygon class="cls-2" points="118.85 27.22 118.45 28.3 117.17 27.82 116.69 29.09 118.85 29.9 118.85 27.22"/><polygon class="cls-2" points="112.16 23.7 112.52 22.39 113.84 22.75 114.2 21.44 111.57 20.71 110.85 23.34 112.16 23.7"/><polygon class="cls-1" points="118.85 15.11 118.43 15.12 118.45 16.48 117.08 16.49 117.09 17.85 118.85 17.84 118.85 15.11"/><polygon class="cls-1" points="112.41 9.21 112.52 10.57 111.16 10.68 111.28 12.04 114 11.81 113.77 9.1 112.41 9.21"/><polygon class="cls-1" points="118.85 6.53 118.85 3.3 118.03 2.78 117.3 3.93 118.45 4.66 117.71 5.81 118.85 6.53"/><polygon class="cls-1" points="111.83 0 112.47 0.68 113.19 0 111.83 0"/><polygon class="cls-3" points="112.52 80.47 112.52 81.83 111.16 81.83 111.16 83.19 113.89 83.19 113.89 80.47 112.52 80.47"/><polygon class="cls-2" points="118.85 74.85 118.45 75.92 117.17 75.44 116.69 76.72 118.85 77.53 118.85 74.85"/><polygon class="cls-1" points="112.16 71.33 112.52 70.01 113.84 70.37 114.2 69.06 111.57 68.34 110.85 70.96 112.16 71.33"/><polygon class="cls-3" points="118.85 62.74 118.43 62.74 118.45 64.1 117.08 64.11 117.09 65.48 118.85 65.46 118.85 62.74"/><polygon class="cls-3" points="112.41 56.84 112.52 58.2 111.16 58.31 111.28 59.66 114 59.44 113.77 56.73 112.41 56.84"/><polygon class="cls-1" points="118.85 54.16 118.85 50.93 118.03 50.41 117.3 51.55 118.45 52.29 117.71 53.43 118.85 54.16"/><polygon class="cls-2" points="111.58 45.39 112.52 46.38 111.53 47.31 112.47 48.3 114.45 46.43 112.58 44.45 111.58 45.39"/><polygon class="cls-2" points="118.85 38.81 116.65 39.77 117.2 41.01 118.45 40.47 118.85 41.39 118.85 38.81"/><polygon class="cls-1" points="112.16 118.95 112.52 117.64 113.84 118 114.2 116.69 111.57 115.96 110.85 118.59 112.16 118.95"/><polygon class="cls-3" points="118.85 110.36 118.43 110.37 118.45 111.73 117.08 111.74 117.09 113.1 118.85 113.09 118.85 110.36"/><polygon class="cls-2" points="112.41 104.46 112.52 105.82 111.16 105.93 111.28 107.29 114 107.06 113.77 104.35 112.41 104.46"/><polygon class="cls-1" points="118.85 101.78 118.85 98.55 118.03 98.03 117.3 99.18 118.45 99.91 117.71 101.06 118.85 101.78"/><polygon class="cls-1" points="111.58 93.02 112.52 94 111.53 94.94 112.47 95.93 114.45 94.05 112.58 92.08 111.58 93.02"/><polygon class="cls-2" points="118.85 86.43 116.65 87.39 117.2 88.64 118.45 88.09 118.85 89.01 118.85 86.43"/><polygon class="cls-3" points="65.79 32.84 65.79 34.21 64.43 34.21 64.43 35.57 67.16 35.57 67.16 32.84 65.79 32.84"/><polygon class="cls-1" points="76.49 33.47 77.63 34.21 76.89 35.35 78.04 36.09 79.52 33.8 77.23 32.32 76.49 33.47"/><polygon class="cls-1" points="88.12 34.39 89.47 34.21 89.66 35.55 91.01 35.37 90.64 32.67 87.94 33.04 88.12 34.39"/><polygon class="cls-3" points="101.63 32.88 101.32 34.21 99.99 33.9 99.68 35.22 102.34 35.84 102.95 33.19 101.63 32.88"/><polygon class="cls-1" points="72.19 27.02 71.71 28.3 70.43 27.82 69.95 29.09 72.51 30.05 73.47 27.5 72.19 27.02"/><polygon class="cls-2" points="84.91 28.45 83.55 28.3 83.71 26.94 82.36 26.79 82.04 29.49 84.75 29.81 84.91 28.45"/><polygon class="cls-1" points="94.05 28.54 95.4 28.3 95.64 29.64 96.98 29.4 96.5 26.72 93.81 27.2 94.05 28.54"/><polygon class="cls-1" points="107.11 26.94 107.24 28.3 105.88 28.43 106.01 29.78 108.73 29.52 108.47 26.81 107.11 26.94"/><polygon class="cls-3" points="65.43 23.7 65.79 22.39 67.11 22.75 67.47 21.44 64.84 20.71 64.11 23.34 65.43 23.7"/><polygon class="cls-2" points="76.35 22.85 77.63 22.39 78.09 23.67 79.38 23.21 78.46 20.65 75.89 21.57 76.35 22.85"/><polygon class="cls-2" points="89.61 23.74 89.47 22.39 90.83 22.25 90.7 20.9 87.98 21.17 88.25 23.88 89.61 23.74"/><polygon class="cls-2" points="101.67 23.7 101.32 22.39 102.64 22.04 102.28 20.72 99.65 21.43 100.35 24.05 101.67 23.7"/><polygon class="cls-1" points="71.7 15.12 71.71 16.48 70.35 16.49 70.36 17.85 73.09 17.83 73.06 15.11 71.7 15.12"/><polygon class="cls-1" points="83.76 15.13 83.55 16.48 82.2 16.27 82 17.61 84.69 18.03 85.11 15.34 83.76 15.13"/><polygon class="cls-1" points="96.33 15.48 95.4 16.48 94.4 15.55 93.47 16.55 95.47 18.4 97.32 16.41 96.33 15.48"/><polygon class="cls-1" points="105.95 16.93 107.24 16.48 107.69 17.77 108.97 17.32 108.08 14.75 105.5 15.64 105.95 16.93"/><polygon class="cls-3" points="65.68 9.21 65.79 10.57 64.43 10.68 64.54 12.04 67.26 11.81 67.04 9.1 65.68 9.21"/><polygon class="cls-3" points="78.45 9.48 77.63 10.57 76.54 9.75 75.72 10.84 77.91 12.48 79.54 10.3 78.45 9.48"/><polygon class="cls-2" points="89.75 9.24 89.47 10.57 88.14 10.3 87.86 11.63 90.54 12.18 91.08 9.51 89.75 9.24"/><polygon class="cls-1" points="101.79 9.29 101.32 10.57 100.04 10.1 99.56 11.37 102.12 12.32 103.07 9.77 101.79 9.29"/><polygon class="cls-1" points="70.56 3.93 71.71 4.66 70.98 5.81 72.13 6.54 73.59 4.25 71.29 2.78 70.56 3.93"/><polygon class="cls-1" points="82.73 5.75 83.55 4.66 84.64 5.48 85.47 4.4 83.29 2.75 81.64 4.92 82.73 5.75"/><polygon class="cls-3" points="95.98 5.89 95.4 4.66 96.63 4.08 96.04 2.85 93.58 4.01 94.75 6.47 95.98 5.89"/><polygon class="cls-3" points="108.4 5.38 107.24 4.66 107.96 3.5 106.8 2.79 105.36 5.1 107.68 6.54 108.4 5.38"/><polygon class="cls-2" points="65.1 0 65.74 0.68 66.45 0 65.1 0"/><polygon class="cls-1" points="77.08 0 78.4 0.52 78.61 0 77.08 0"/><polygon class="cls-1" points="100.75 0 101.78 0.62 102.16 0 100.75 0"/><polygon class="cls-2" points="65.79 80.47 65.79 81.83 64.43 81.83 64.43 83.19 67.16 83.19 67.16 80.47 65.79 80.47"/><polygon class="cls-3" points="76.49 81.09 77.63 81.83 76.89 82.97 78.04 83.71 79.52 81.43 77.23 79.95 76.49 81.09"/><polygon class="cls-2" points="88.12 82.02 89.47 81.83 89.66 83.18 91.01 82.99 90.64 80.3 87.94 80.67 88.12 82.02"/><polygon class="cls-1" points="101.63 80.5 101.32 81.83 99.99 81.52 99.68 82.85 102.34 83.47 102.95 80.81 101.63 80.5"/><polygon class="cls-1" points="72.19 74.65 71.71 75.92 70.43 75.44 69.95 76.72 72.51 77.67 73.47 75.12 72.19 74.65"/><polygon class="cls-2" points="84.91 76.08 83.55 75.92 83.71 74.57 82.36 74.41 82.04 77.12 84.75 77.43 84.91 76.08"/><polygon class="cls-3" points="94.05 76.16 95.4 75.92 95.64 77.26 96.98 77.02 96.5 74.34 93.81 74.82 94.05 76.16"/><polygon class="cls-1" points="107.11 74.57 107.24 75.92 105.88 76.05 106.01 77.41 108.73 77.15 108.47 74.44 107.11 74.57"/><polygon class="cls-2" points="65.43 71.33 65.79 70.01 67.11 70.37 67.47 69.06 64.84 68.34 64.11 70.96 65.43 71.33"/><polygon class="cls-3" points="76.35 70.47 77.63 70.01 78.09 71.3 79.38 70.84 78.46 68.27 75.89 69.19 76.35 70.47"/><polygon class="cls-3" points="89.61 71.37 89.47 70.01 90.83 69.88 90.7 68.52 87.98 68.79 88.25 71.5 89.61 71.37"/><polygon class="cls-1" points="101.67 71.33 101.32 70.01 102.64 69.66 102.28 68.35 99.65 69.05 100.35 71.68 101.67 71.33"/><polygon class="cls-3" points="71.7 62.74 71.71 64.1 70.35 64.11 70.36 65.48 73.09 65.45 73.06 62.73 71.7 62.74"/><polygon class="cls-3" points="83.76 62.76 83.55 64.1 82.2 63.89 82 65.24 84.69 65.66 85.11 62.97 83.76 62.76"/><polygon class="cls-2" points="96.33 63.11 95.4 64.1 94.4 63.18 93.47 64.17 95.47 66.03 97.32 64.03 96.33 63.11"/><polygon class="cls-2" points="105.95 64.55 107.24 64.1 107.69 65.39 108.97 64.94 108.08 62.37 105.5 63.27 105.95 64.55"/><polygon class="cls-3" points="65.68 56.84 65.79 58.2 64.43 58.31 64.54 59.66 67.26 59.44 67.04 56.73 65.68 56.84"/><polygon class="cls-1" points="78.45 57.11 77.63 58.2 76.54 57.38 75.72 58.47 77.91 60.1 79.54 57.92 78.45 57.11"/><polygon class="cls-3" points="89.75 56.86 89.47 58.2 88.14 57.92 87.86 59.26 90.54 59.8 91.08 57.13 89.75 56.86"/><polygon class="cls-1" points="101.79 56.92 101.32 58.2 100.04 57.72 99.56 59 102.12 59.94 103.07 57.39 101.79 56.92"/><polygon class="cls-3" points="70.56 51.55 71.71 52.29 70.98 53.43 72.13 54.17 73.59 51.87 71.29 50.41 70.56 51.55"/><polygon class="cls-1" points="82.73 53.37 83.55 52.29 84.64 53.11 85.47 52.02 83.29 50.38 81.64 52.55 82.73 53.37"/><polygon class="cls-1" points="95.98 53.52 95.4 52.29 96.63 51.7 96.04 50.47 93.58 51.64 94.75 54.1 95.98 53.52"/><polygon class="cls-1" points="108.4 53 107.24 52.29 107.96 51.13 106.8 50.41 105.36 52.73 107.68 54.16 108.4 53"/><polygon class="cls-1" points="64.85 45.39 65.79 46.38 64.8 47.31 65.74 48.3 67.72 46.43 65.84 44.45 64.85 45.39"/><polygon class="cls-1" points="78.9 46.88 77.63 46.38 78.13 45.11 76.86 44.61 75.86 47.14 78.4 48.14 78.9 46.88"/><polygon class="cls-3" points="88.64 47.46 89.47 46.38 90.56 47.21 91.39 46.13 89.22 44.47 87.56 46.63 88.64 47.46"/><polygon class="cls-1" points="102.48 47.08 101.32 46.38 102.02 45.21 100.86 44.51 99.44 46.84 101.78 48.25 102.48 47.08"/><polygon class="cls-1" points="70.46 41.01 71.71 40.47 72.26 41.72 73.51 41.17 72.42 38.68 69.92 39.77 70.46 41.01"/><polygon class="cls-1" points="83.02 41.72 83.55 40.47 84.81 41 85.34 39.75 82.83 38.68 81.76 41.19 83.02 41.72"/><polygon class="cls-3" points="96.6 39.84 95.4 40.47 94.76 39.26 93.55 39.9 94.82 42.31 97.24 41.04 96.6 39.84"/><polygon class="cls-1" points="106.18 41.33 107.24 40.47 108.11 41.52 109.16 40.66 107.43 38.55 105.32 40.28 106.18 41.33"/><polygon class="cls-1" points="65.43 118.95 65.79 117.64 67.11 118 67.47 116.69 64.84 115.96 64.11 118.59 65.43 118.95"/><polygon class="cls-1" points="76.35 118.1 77.63 117.64 78.09 118.92 79.38 118.46 78.46 115.9 75.89 116.81 76.35 118.1"/><polygon class="cls-3" points="89.61 118.99 89.47 117.64 90.83 117.5 90.7 116.15 87.98 116.42 88.25 119.13 89.61 118.99"/><polygon class="cls-2" points="101.67 118.95 101.32 117.64 102.64 117.28 102.28 115.97 99.65 116.68 100.35 119.31 101.67 118.95"/><polygon class="cls-2" points="71.7 110.37 71.71 111.73 70.35 111.74 70.36 113.1 73.09 113.08 73.06 110.36 71.7 110.37"/><polygon class="cls-1" points="83.76 110.38 83.55 111.73 82.2 111.52 82 112.86 84.69 113.28 85.11 110.59 83.76 110.38"/><polygon class="cls-2" points="96.33 110.73 95.4 111.73 94.4 110.8 93.47 111.8 95.47 113.65 97.32 111.66 96.33 110.73"/><polygon class="cls-3" points="105.95 112.18 107.24 111.73 107.69 113.02 108.97 112.57 108.08 110 105.5 110.89 105.95 112.18"/><polygon class="cls-1" points="65.68 104.46 65.79 105.82 64.43 105.93 64.54 107.29 67.26 107.06 67.04 104.35 65.68 104.46"/><polygon class="cls-2" points="78.45 104.73 77.63 105.82 76.54 105 75.72 106.09 77.91 107.73 79.54 105.55 78.45 104.73"/><polygon class="cls-3" points="89.75 104.49 89.47 105.82 88.14 105.55 87.86 106.88 90.54 107.43 91.08 104.76 89.75 104.49"/><polygon class="cls-1" points="101.79 104.54 101.32 105.82 100.04 105.35 99.56 106.62 102.12 107.57 103.07 105.02 101.79 104.54"/><polygon class="cls-3" points="70.56 99.18 71.71 99.91 70.98 101.06 72.13 101.79 73.59 99.5 71.29 98.03 70.56 99.18"/><polygon class="cls-3" points="82.73 101 83.55 99.91 84.64 100.73 85.47 99.65 83.29 98 81.64 100.17 82.73 101"/><polygon class="cls-1" points="95.98 101.14 95.4 99.91 96.63 99.33 96.04 98.1 93.58 99.27 94.75 101.72 95.98 101.14"/><polygon class="cls-3" points="108.4 100.63 107.24 99.91 107.96 98.75 106.8 98.04 105.36 100.35 107.68 101.79 108.4 100.63"/><polygon class="cls-3" points="64.85 93.02 65.79 94 64.8 94.94 65.74 95.93 67.72 94.05 65.84 92.08 64.85 93.02"/><polygon class="cls-3" points="78.9 94.5 77.63 94 78.13 92.74 76.86 92.24 75.86 94.77 78.4 95.77 78.9 94.5"/><polygon class="cls-1" points="88.64 95.08 89.47 94 90.56 94.83 91.39 93.75 89.22 92.09 87.56 94.25 88.64 95.08"/><polygon class="cls-3" points="102.48 94.71 101.32 94 102.02 92.84 100.86 92.13 99.44 94.46 101.78 95.87 102.48 94.71"/><polygon class="cls-3" points="70.46 88.64 71.71 88.09 72.26 89.34 73.51 88.8 72.42 86.3 69.92 87.39 70.46 88.64"/><polygon class="cls-3" points="83.02 89.35 83.55 88.09 84.81 88.63 85.34 87.37 82.83 86.31 81.76 88.81 83.02 89.35"/><polygon class="cls-1" points="96.6 87.46 95.4 88.09 94.76 86.89 93.55 87.52 94.82 89.93 97.24 88.67 96.6 87.46"/><polygon class="cls-1" points="106.18 88.96 107.24 88.09 108.11 89.15 109.16 88.28 107.43 86.18 105.32 87.91 106.18 88.96"/><polygon class="cls-2" points="19.06 32.84 19.06 34.21 17.69 34.21 17.69 35.57 20.42 35.57 20.42 32.84 19.06 32.84"/><polygon class="cls-3" points="29.75 33.47 30.9 34.21 30.16 35.35 31.3 36.09 32.78 33.8 30.49 32.32 29.75 33.47"/><polygon class="cls-1" points="41.39 34.39 42.74 34.21 42.93 35.55 44.28 35.37 43.91 32.67 41.2 33.04 41.39 34.39"/><polygon class="cls-3" points="54.89 32.88 54.58 34.21 53.25 33.9 52.95 35.22 55.6 35.84 56.22 33.19 54.89 32.88"/><polygon class="cls-2" points="25.45 27.02 24.98 28.3 23.7 27.82 23.22 29.09 25.78 30.05 26.73 27.5 25.45 27.02"/><polygon class="cls-2" points="38.17 28.45 36.82 28.3 36.98 26.94 35.62 26.79 35.31 29.49 38.02 29.81 38.17 28.45"/><polygon class="cls-3" points="47.32 28.54 48.66 28.3 48.9 29.64 50.25 29.4 49.76 26.72 47.08 27.2 47.32 28.54"/><polygon class="cls-1" points="60.37 26.94 60.5 28.3 59.15 28.43 59.28 29.78 61.99 29.52 61.73 26.81 60.37 26.94"/><polygon class="cls-1" points="18.69 23.7 19.06 22.39 20.37 22.75 20.73 21.44 18.1 20.71 17.38 23.34 18.69 23.7"/><polygon class="cls-1" points="29.61 22.85 30.9 22.39 31.36 23.67 32.64 23.21 31.72 20.65 29.16 21.57 29.61 22.85"/><polygon class="cls-3" points="42.87 23.74 42.74 22.39 44.1 22.25 43.97 20.9 41.25 21.17 41.52 23.88 42.87 23.74"/><polygon class="cls-1" points="54.94 23.7 54.58 22.39 55.9 22.04 55.55 20.72 52.91 21.43 53.62 24.05 54.94 23.7"/><polygon class="cls-1" points="24.97 15.12 24.98 16.48 23.61 16.49 23.62 17.85 26.35 17.83 26.33 15.11 24.97 15.12"/><polygon class="cls-1" points="37.03 15.13 36.82 16.48 35.47 16.27 35.26 17.61 37.96 18.03 38.38 15.34 37.03 15.13"/><polygon class="cls-2" points="49.59 15.48 48.66 16.48 47.66 15.55 46.73 16.55 48.73 18.4 50.59 16.41 49.59 15.48"/><polygon class="cls-3" points="59.22 16.93 60.5 16.48 60.95 17.77 62.24 17.32 61.34 14.75 58.77 15.64 59.22 16.93"/><polygon class="cls-2" points="18.94 9.21 19.06 10.57 17.7 10.68 17.81 12.04 20.53 11.81 20.3 9.1 18.94 9.21"/><polygon class="cls-2" points="31.72 9.48 30.9 10.57 29.81 9.75 28.99 10.84 31.17 12.48 32.81 10.3 31.72 9.48"/><polygon class="cls-2" points="43.02 9.24 42.74 10.57 41.4 10.3 41.13 11.63 43.8 12.18 44.35 9.51 43.02 9.24"/><polygon class="cls-1" points="55.06 9.29 54.58 10.57 53.3 10.1 52.83 11.37 55.39 12.32 56.34 9.77 55.06 9.29"/><polygon class="cls-1" points="23.83 3.93 24.98 4.66 24.24 5.81 25.39 6.54 26.86 4.25 24.56 2.78 23.83 3.93"/><polygon class="cls-2" points="35.99 5.75 36.82 4.66 37.91 5.48 38.73 4.4 36.56 2.75 34.91 4.92 35.99 5.75"/><polygon class="cls-1" points="49.25 5.89 48.66 4.66 49.89 4.08 49.31 2.85 46.84 4.01 48.02 6.47 49.25 5.89"/><polygon class="cls-1" points="61.66 5.38 60.5 4.66 61.22 3.5 60.06 2.79 58.63 5.1 60.95 6.54 61.66 5.38"/><polygon class="cls-1" points="18.36 0 19 0.68 19.72 0 18.36 0"/><polygon class="cls-1" points="30.35 0 31.67 0.52 31.87 0 30.35 0"/><polygon class="cls-2" points="54.01 0 55.04 0.62 55.42 0 54.01 0"/><polygon class="cls-3" points="19.06 80.47 19.06 81.83 17.69 81.83 17.69 83.19 20.42 83.19 20.42 80.47 19.06 80.47"/><polygon class="cls-1" points="29.75 81.09 30.9 81.83 30.16 82.97 31.3 83.71 32.78 81.43 30.49 79.95 29.75 81.09"/><polygon class="cls-2" points="41.39 82.02 42.74 81.83 42.93 83.18 44.28 82.99 43.91 80.3 41.2 80.67 41.39 82.02"/><polygon class="cls-3" points="54.89 80.5 54.58 81.83 53.25 81.52 52.95 82.85 55.6 83.47 56.22 80.81 54.89 80.5"/><polygon class="cls-1" points="25.45 74.65 24.98 75.92 23.7 75.44 23.22 76.72 25.78 77.67 26.73 75.12 25.45 74.65"/><polygon class="cls-1" points="38.17 76.08 36.82 75.92 36.98 74.57 35.62 74.41 35.31 77.12 38.02 77.43 38.17 76.08"/><polygon class="cls-1" points="47.32 76.16 48.66 75.92 48.9 77.26 50.25 77.02 49.76 74.34 47.08 74.82 47.32 76.16"/><polygon class="cls-2" points="60.37 74.57 60.5 75.92 59.15 76.05 59.28 77.41 61.99 77.15 61.73 74.44 60.37 74.57"/><polygon class="cls-1" points="18.69 71.33 19.06 70.01 20.37 70.37 20.73 69.06 18.1 68.34 17.38 70.96 18.69 71.33"/><polygon class="cls-2" points="29.61 70.47 30.9 70.01 31.36 71.3 32.64 70.84 31.72 68.27 29.16 69.19 29.61 70.47"/><polygon class="cls-1" points="42.87 71.37 42.74 70.01 44.1 69.88 43.97 68.52 41.25 68.79 41.52 71.5 42.87 71.37"/><polygon class="cls-2" points="54.94 71.33 54.58 70.01 55.9 69.66 55.55 68.35 52.91 69.05 53.62 71.68 54.94 71.33"/><polygon class="cls-1" points="24.97 62.74 24.98 64.1 23.61 64.11 23.62 65.48 26.35 65.45 26.33 62.73 24.97 62.74"/><polygon class="cls-1" points="37.03 62.76 36.82 64.1 35.47 63.89 35.26 65.24 37.96 65.66 38.38 62.97 37.03 62.76"/><polygon class="cls-1" points="49.59 63.11 48.66 64.1 47.66 63.18 46.73 64.17 48.73 66.03 50.59 64.03 49.59 63.11"/><polygon class="cls-1" points="59.22 64.55 60.5 64.1 60.95 65.39 62.24 64.94 61.34 62.37 58.77 63.27 59.22 64.55"/><polygon class="cls-3" points="18.94 56.84 19.06 58.2 17.7 58.31 17.81 59.66 20.53 59.44 20.3 56.73 18.94 56.84"/><polygon class="cls-2" points="31.72 57.11 30.9 58.2 29.81 57.38 28.99 58.47 31.17 60.1 32.81 57.92 31.72 57.11"/><polygon class="cls-3" points="43.02 56.86 42.74 58.2 41.4 57.92 41.13 59.26 43.8 59.8 44.35 57.13 43.02 56.86"/><polygon class="cls-1" points="55.06 56.92 54.58 58.2 53.3 57.72 52.83 59 55.39 59.94 56.34 57.39 55.06 56.92"/><polygon class="cls-2" points="23.83 51.55 24.98 52.29 24.24 53.43 25.39 54.17 26.86 51.87 24.56 50.41 23.83 51.55"/><polygon class="cls-1" points="35.99 53.37 36.82 52.29 37.91 53.11 38.73 52.02 36.56 50.38 34.91 52.55 35.99 53.37"/><polygon class="cls-2" points="49.25 53.52 48.66 52.29 49.89 51.7 49.31 50.47 46.84 51.64 48.02 54.1 49.25 53.52"/><polygon class="cls-2" points="61.66 53 60.5 52.29 61.22 51.13 60.06 50.41 58.63 52.73 60.95 54.16 61.66 53"/><polygon class="cls-3" points="18.12 45.39 19.06 46.38 18.07 47.31 19 48.3 20.98 46.43 19.11 44.45 18.12 45.39"/><polygon class="cls-1" points="32.17 46.88 30.9 46.38 31.4 45.11 30.13 44.61 29.13 47.14 31.67 48.14 32.17 46.88"/><polygon class="cls-2" points="41.91 47.46 42.74 46.38 43.82 47.21 44.65 46.13 42.49 44.47 40.83 46.63 41.91 47.46"/><polygon class="cls-1" points="55.75 47.08 54.58 46.38 55.29 45.21 54.12 44.51 52.71 46.84 55.04 48.25 55.75 47.08"/><polygon class="cls-1" points="23.73 41.01 24.98 40.47 25.52 41.72 26.77 41.17 25.68 38.68 23.18 39.77 23.73 41.01"/><polygon class="cls-1" points="36.29 41.72 36.82 40.47 38.08 41 38.61 39.75 36.1 38.68 35.03 41.19 36.29 41.72"/><polygon class="cls-3" points="49.87 39.84 48.66 40.47 48.03 39.26 46.82 39.9 48.09 42.31 50.5 41.04 49.87 39.84"/><polygon class="cls-3" points="59.45 41.33 60.5 40.47 61.37 41.52 62.42 40.66 60.69 38.55 58.58 40.28 59.45 41.33"/><polygon class="cls-1" points="18.69 118.95 19.06 117.64 20.37 118 20.73 116.69 18.1 115.96 17.38 118.59 18.69 118.95"/><polygon class="cls-1" points="29.61 118.1 30.9 117.64 31.36 118.92 32.64 118.46 31.72 115.9 29.16 116.81 29.61 118.1"/><polygon class="cls-1" points="42.87 118.99 42.74 117.64 44.1 117.5 43.97 116.15 41.25 116.42 41.52 119.13 42.87 118.99"/><polygon class="cls-1" points="54.94 118.95 54.58 117.64 55.9 117.28 55.55 115.97 52.91 116.68 53.62 119.31 54.94 118.95"/><polygon class="cls-2" points="24.97 110.37 24.98 111.73 23.61 111.74 23.62 113.1 26.35 113.08 26.33 110.36 24.97 110.37"/><polygon class="cls-2" points="37.03 110.38 36.82 111.73 35.47 111.52 35.26 112.86 37.96 113.28 38.38 110.59 37.03 110.38"/><polygon class="cls-1" points="49.59 110.73 48.66 111.73 47.66 110.8 46.73 111.8 48.73 113.65 50.59 111.66 49.59 110.73"/><polygon class="cls-2" points="59.22 112.18 60.5 111.73 60.95 113.02 62.24 112.57 61.34 110 58.77 110.89 59.22 112.18"/><polygon class="cls-1" points="18.94 104.46 19.06 105.82 17.7 105.93 17.81 107.29 20.53 107.06 20.3 104.35 18.94 104.46"/><polygon class="cls-2" points="31.72 104.73 30.9 105.82 29.81 105 28.99 106.09 31.17 107.73 32.81 105.55 31.72 104.73"/><polygon class="cls-1" points="43.02 104.49 42.74 105.82 41.4 105.55 41.13 106.88 43.8 107.43 44.35 104.76 43.02 104.49"/><polygon class="cls-1" points="55.06 104.54 54.58 105.82 53.3 105.35 52.83 106.62 55.39 107.57 56.34 105.02 55.06 104.54"/><polygon class="cls-3" points="23.83 99.18 24.98 99.91 24.24 101.06 25.39 101.79 26.86 99.5 24.56 98.03 23.83 99.18"/><polygon class="cls-3" points="35.99 101 36.82 99.91 37.91 100.73 38.73 99.65 36.56 98 34.91 100.17 35.99 101"/><polygon class="cls-3" points="49.25 101.14 48.66 99.91 49.89 99.33 49.31 98.1 46.84 99.27 48.02 101.72 49.25 101.14"/><polygon class="cls-2" points="61.66 100.63 60.5 99.91 61.22 98.75 60.06 98.04 58.63 100.35 60.95 101.79 61.66 100.63"/><polygon class="cls-1" points="18.12 93.02 19.06 94 18.07 94.94 19 95.93 20.98 94.05 19.11 92.08 18.12 93.02"/><polygon class="cls-2" points="32.17 94.5 30.9 94 31.4 92.74 30.13 92.24 29.13 94.77 31.67 95.77 32.17 94.5"/><polygon class="cls-1" points="41.91 95.08 42.74 94 43.82 94.83 44.65 93.75 42.49 92.09 40.83 94.25 41.91 95.08"/><polygon class="cls-1" points="55.75 94.71 54.58 94 55.29 92.84 54.12 92.13 52.71 94.46 55.04 95.87 55.75 94.71"/><polygon class="cls-3" points="23.73 88.64 24.98 88.09 25.52 89.34 26.77 88.8 25.68 86.3 23.18 87.39 23.73 88.64"/><polygon class="cls-1" points="36.29 89.35 36.82 88.09 38.08 88.63 38.61 87.37 36.1 86.31 35.03 88.81 36.29 89.35"/><polygon class="cls-1" points="49.87 87.46 48.66 88.09 48.03 86.89 46.82 87.52 48.09 89.93 50.5 88.67 49.87 87.46"/><polygon class="cls-1" points="59.45 88.96 60.5 88.09 61.37 89.15 62.42 88.28 60.69 86.18 58.58 87.91 59.45 88.96"/><polygon class="cls-1" points="8.16 32.88 7.85 34.21 6.52 33.9 6.21 35.22 8.87 35.84 9.49 33.19 8.16 32.88"/><polygon class="cls-3" points="0.58 28.54 1.93 28.3 2.17 29.64 3.51 29.4 3.03 26.72 0.34 27.2 0.58 28.54"/><polygon class="cls-1" points="13.64 26.94 13.77 28.3 12.41 28.43 12.54 29.78 15.26 29.52 15 26.81 13.64 26.94"/><polygon class="cls-1" points="8.2 23.7 7.85 22.39 9.17 22.04 8.81 20.72 6.18 21.43 6.88 24.05 8.2 23.7"/><polygon class="cls-1" points="2.86 15.48 1.93 16.48 0.93 15.55 0 16.55 2 18.4 3.86 16.41 2.86 15.48"/><polygon class="cls-3" points="12.48 16.93 13.77 16.48 14.22 17.77 15.51 17.32 14.61 14.75 12.03 15.64 12.48 16.93"/><polygon class="cls-3" points="8.32 9.29 7.85 10.57 6.57 10.1 6.1 11.37 8.65 12.32 9.6 9.77 8.32 9.29"/><polygon class="cls-1" points="2.51 5.89 1.93 4.66 3.16 4.08 2.58 2.85 0.11 4.01 1.28 6.47 2.51 5.89"/><polygon class="cls-3" points="14.93 5.38 13.77 4.66 14.49 3.5 13.33 2.79 11.89 5.1 14.21 6.54 14.93 5.38"/><polygon class="cls-2" points="7.28 0 8.31 0.62 8.69 0 7.28 0"/><polygon class="cls-1" points="8.16 80.5 7.85 81.83 6.52 81.52 6.21 82.85 8.87 83.47 9.49 80.81 8.16 80.5"/><polygon class="cls-3" points="0.58 76.16 1.93 75.92 2.17 77.26 3.51 77.02 3.03 74.34 0.34 74.82 0.58 76.16"/><polygon class="cls-2" points="13.64 74.57 13.77 75.92 12.41 76.05 12.54 77.41 15.26 77.15 15 74.44 13.64 74.57"/><polygon class="cls-3" points="8.2 71.33 7.85 70.01 9.17 69.66 8.81 68.35 6.18 69.05 6.88 71.68 8.2 71.33"/><polygon class="cls-2" points="2.86 63.11 1.93 64.1 0.93 63.18 0 64.17 2 66.03 3.86 64.03 2.86 63.11"/><polygon class="cls-2" points="12.48 64.55 13.77 64.1 14.22 65.39 15.51 64.94 14.61 62.37 12.03 63.27 12.48 64.55"/><polygon class="cls-1" points="8.32 56.92 7.85 58.2 6.57 57.72 6.1 59 8.65 59.94 9.6 57.39 8.32 56.92"/><polygon class="cls-1" points="2.51 53.52 1.93 52.29 3.16 51.7 2.58 50.47 0.11 51.64 1.28 54.1 2.51 53.52"/><polygon class="cls-3" points="14.93 53 13.77 52.29 14.49 51.13 13.33 50.41 11.89 52.73 14.21 54.16 14.93 53"/><polygon class="cls-2" points="9.02 47.08 7.85 46.38 8.56 45.21 7.39 44.51 5.97 46.84 8.31 48.25 9.02 47.08"/><polygon class="cls-3" points="3.14 39.84 1.93 40.47 1.29 39.26 0.09 39.9 1.35 42.31 3.77 41.04 3.14 39.84"/><polygon class="cls-1" points="12.72 41.33 13.77 40.47 14.64 41.52 15.69 40.66 13.96 38.55 11.85 40.28 12.72 41.33"/><polygon class="cls-1" points="8.2 118.95 7.85 117.64 9.17 117.28 8.81 115.97 6.18 116.68 6.88 119.31 8.2 118.95"/><polygon class="cls-3" points="2.86 110.73 1.93 111.73 0.93 110.8 0 111.8 2 113.65 3.86 111.66 2.86 110.73"/><polygon class="cls-1" points="12.48 112.18 13.77 111.73 14.22 113.02 15.51 112.57 14.61 110 12.03 110.89 12.48 112.18"/><polygon class="cls-1" points="8.32 104.54 7.85 105.82 6.57 105.35 6.1 106.62 8.65 107.57 9.6 105.02 8.32 104.54"/><polygon class="cls-3" points="2.51 101.14 1.93 99.91 3.16 99.33 2.58 98.1 0.11 99.27 1.28 101.72 2.51 101.14"/><polygon class="cls-3" points="14.93 100.63 13.77 99.91 14.49 98.75 13.33 98.04 11.89 100.35 14.21 101.79 14.93 100.63"/><polygon class="cls-1" points="9.02 94.71 7.85 94 8.56 92.84 7.39 92.13 5.97 94.46 8.31 95.87 9.02 94.71"/><polygon class="cls-1" points="3.14 87.46 1.93 88.09 1.29 86.89 0.09 87.52 1.35 89.93 3.77 88.67 3.14 87.46"/><polygon class="cls-2" points="12.72 88.96 13.77 88.09 14.64 89.15 15.69 88.28 13.96 86.18 11.85 87.91 12.72 88.96"/></svg>